<?xml version="1.0" encoding="UTF-8" standalone="no"?><!DOCTYPE svg PUBLIC "-//W3C//DTD SVG 1.1//EN" "http://www.w3.org/Graphics/SVG/1.1/DTD/svg11.dtd"><svg width="100%" height="100%" viewBox="0 0 4267 4267" version="1.1" xmlns="http://www.w3.org/2000/svg" xmlns:xlink="http://www.w3.org/1999/xlink" xml:space="preserve" xmlns:serif="http://www.serif.com/" style="fill-rule:evenodd;clip-rule:evenodd;stroke-linecap:round;stroke-linejoin:round;stroke-miterlimit:1.5;"><rect id="Artboard1" x="0" y="0" width="4266.67" height="4266.67" style="fill:none;"/><g id="Artboard11" serif:id="Artboard1"><g id="Bottom"><rect x="1130.72" y="3997.27" width="69.181" height="97.134" style="fill:#232323;"/><rect x="3066.77" y="3997.27" width="69.181" height="97.134" style="fill:#232323;"/><ellipse cx="2133.33" cy="3997.27" rx="1002.62" ry="152.37" style="fill:#232323;"/><ellipse cx="2133.33" cy="4094.4" rx="1002.62" ry="152.37" style="fill:#232323;"/></g><g id="Roll"><ellipse cx="2154.88" cy="3987.52" rx="654.567" ry="76.185" style="fill:#ddd;"/><rect x="1500.32" y="309.474" width="1309.13" height="3678.04" style="fill:#ddd;"/><ellipse cx="2346.42" cy="1373.56" rx="173.628" ry="104.244" style="stroke:#000;stroke-width:2.08px;"/><path d="M1478.92,294.198c-17.311,48.782 2.84,3667.94 4.337,3701.87c1.496,33.926 159.917,41.618 159.917,41.618c0,-0 -44.009,-190.374 31.041,-291.678c75.05,-101.304 428.915,-523.597 586.734,-534.527c157.819,-10.931 224.016,22.466 241.227,-109.823c40.205,-309.018 0,-1744.29 0,-1744.29c0,-0 -92.009,40.46 -215.81,-0c-123.801,-40.461 -503.393,-592.393 -611.494,-769.757c-41.567,-68.201 -37.11,-294.429 -37.11,-294.429c0,-0 -141.531,-47.766 -158.842,1.015Z" style="fill:#ddd;stroke:#000;stroke-width:31.25px;"/></g><g id="Bottom1" serif:id="Bottom"><rect x="1130.72" y="269.399" width="69.181" height="97.134" style="fill:#232323;"/><rect x="3066.77" y="269.399" width="69.181" height="97.134" style="fill:#232323;"/><ellipse cx="2133.33" cy="269.399" rx="1002.62" ry="152.37" style="fill:#232323;"/><ellipse cx="2133.33" cy="366.533" rx="1002.62" ry="152.37" style="fill:#232323;"/></g><g id="Hole"><ellipse cx="2125.71" cy="274.813" rx="166.65" ry="37.238"/><path d="M2523.49,238.869l-730.495,104.752c-12.895,1.849 -28.946,0.267 -35.821,-3.532l-24.914,-13.767c-6.875,-3.799 -1.988,-8.384 10.907,-10.233l730.495,-104.753c12.895,-1.849 28.946,-0.266 35.821,3.533l24.914,13.766c6.875,3.799 1.988,8.385 -10.907,10.234Z"/><path d="M2350.97,317.924l-49.934,15.054c-13.78,4.155 -30.872,5.976 -38.146,4.064l-358.992,-94.348c-7.274,-1.912 -1.991,-6.837 11.788,-10.991l49.935,-15.055c13.779,-4.154 30.872,-5.975 38.146,-4.064l358.992,94.349c7.273,1.911 1.991,6.836 -11.789,10.991Z"/></g></g></svg>